<svg width="285" height="155" viewBox="0 0 285 155" fill="none" xmlns="http://www.w3.org/2000/svg">
<path d="M52.5403 65.02C54.5613 64.0564 56.6013 63.0837 58.6413 62.1108C58.8526 62.01 59.0557 61.8869 59.2751 61.8092C59.968 61.5635 60.4378 61.0832 60.8632 60.4947C66.1217 53.2186 71.5348 46.059 77.0955 39.0109C83.648 30.7057 90.4481 22.6052 97.296 14.544C97.6496 14.1277 98.0174 13.7231 98.3871 13.3209C98.5716 13.1201 98.7639 12.9234 98.9725 12.7485C99.6152 12.2095 100.348 12.1071 100.909 12.4617C101.451 12.804 101.713 13.4373 101.515 14.2133C101.353 14.8509 101.139 15.4922 100.837 16.0744C99.9035 17.875 98.9701 19.6794 97.9417 21.4265C93.4878 28.9925 89.0033 36.5405 84.5229 44.091C82.9498 46.7421 81.3562 49.3811 79.7728 52.0261C79.5939 52.325 79.4206 52.6272 79.211 52.9854C79.5736 53.1642 79.8284 52.961 80.0927 52.8672C84.2463 51.3941 88.3911 49.896 92.5572 48.4592C94.1779 47.9003 95.8382 47.4495 97.4969 47.0113C98.1181 46.8472 98.5123 46.5343 98.8276 45.9905C100.511 43.0874 102.219 40.1991 103.919 37.3055C104.907 35.6233 105.883 33.9343 106.888 32.2625C107.188 31.7633 107.534 31.2819 107.918 30.8454C108.501 30.1845 109.267 29.9379 110.14 30.0656C111.2 30.2208 111.966 31.0675 112.03 32.1378C112.069 32.7806 111.906 33.385 111.61 33.9411C110.932 35.2149 110.273 36.5022 109.521 37.7317C108.197 39.895 106.809 42.0184 105.451 44.1607C105.245 44.4847 105.058 44.8202 104.805 45.2463C105.419 45.4255 105.945 45.2486 106.463 45.2567C107.279 45.2694 108.101 45.2341 108.91 45.3172C109.402 45.3677 109.904 45.5429 110.349 45.7665C111.582 46.3857 112.091 47.5369 111.82 48.8938C111.655 49.7209 111.27 50.4499 110.74 51.0761C109.935 52.0275 109.103 52.9638 108.209 53.8313C106.302 55.6823 104.212 57.3207 102.088 58.9143C101.779 59.1459 101.477 59.3868 101.23 59.7571C101.604 59.6247 101.982 59.504 102.35 59.3581C107.502 57.3153 112.717 55.4541 118.029 53.8715C121.771 52.7566 125.553 51.8028 129.428 51.279C131.79 50.9598 134.162 50.7106 136.537 51.1662C137.069 51.2684 137.606 51.4113 138.103 51.6237C139.966 52.4202 140.811 53.9912 140.407 55.9719C140.26 56.6901 140.012 57.4033 139.703 58.0692C138.908 59.7818 137.76 61.2667 136.539 62.6923C134.223 65.3947 131.657 67.8503 129.016 70.2281C121.463 77.028 113.406 83.1917 105.126 89.0685C95.2875 96.0519 85.1668 102.602 74.7233 108.649C70.7039 110.976 66.6337 113.209 62.3901 115.11C60.7857 115.828 59.1405 116.435 57.4389 116.885C56.6348 117.098 55.8225 117.164 55.0024 117.056C53.7009 116.884 53.1308 116.191 53.3262 114.884C53.4223 114.242 53.6334 113.583 53.9435 113.013C54.994 111.084 56.3315 109.357 57.8831 107.8C57.9862 107.697 58.1256 107.63 58.3841 107.452C58.3539 107.764 58.3773 107.949 58.3144 108.097C58.0402 108.743 57.7583 109.387 57.4471 110.015C56.8756 111.169 56.2715 112.307 55.7017 113.461C55.4817 113.907 55.1904 114.348 55.3235 114.919C55.7287 115.2 56.1548 115.038 56.5428 114.905C57.832 114.46 59.1372 114.045 60.3836 113.498C63.4598 112.149 66.4032 110.535 69.3089 108.854C78.0981 103.768 86.6002 98.2337 94.8845 92.3677C104.314 85.6906 113.571 78.7805 122.536 71.4862C126.139 68.5539 129.668 65.5347 132.939 62.2277C134.204 60.9497 135.438 59.6404 136.428 58.1354C136.917 57.3921 137.355 56.593 137.669 55.7634C138.098 54.6321 137.777 53.9932 136.621 53.5786C135.931 53.3314 135.192 53.1719 134.463 53.0971C132.038 52.8484 129.631 53.0807 127.235 53.4719C122.328 54.273 117.583 55.6776 112.89 57.285C105.792 59.7164 98.9142 62.6646 92.2092 66.0269C91.3411 66.4622 90.7055 67.047 90.1805 67.8729C83.7318 78.0155 77.2613 88.1442 70.7763 98.2635C69.8297 99.7406 68.8027 101.168 67.7641 102.583C67.3055 103.208 66.7401 103.758 66.1916 104.311C65.9897 104.515 65.6967 104.628 65.3408 104.847C65.2333 104.474 65.1089 104.23 65.1018 103.983C65.0746 103.03 65.3498 102.133 65.6961 101.258C66.3875 99.5103 67.2876 97.869 68.2586 96.2647C70.5821 92.4256 72.8999 88.5831 75.2314 84.7488C81.6177 74.2461 88.01 63.7471 94.3999 53.2465C94.7226 52.7161 95.0446 52.1853 95.4657 51.4922C95.0635 51.5476 94.8187 51.5482 94.595 51.617C90.1183 52.9939 85.72 54.5948 81.3496 56.2742C79.9659 56.8059 78.6055 57.4032 77.2041 57.8818C76.2894 58.1943 75.7223 58.7637 75.2446 59.5819C71.2703 66.3888 67.2488 73.1681 63.2685 79.9715C52.0563 99.1361 41.195 118.501 30.2228 137.803C27.6195 142.383 24.9847 146.944 22.3556 151.509C21.9079 152.286 21.4372 153.053 20.9339 153.795C20.7215 154.108 20.4285 154.391 20.1153 154.605C19.756 154.85 19.3062 154.767 19.0373 154.495C18.7536 154.209 18.7324 153.876 18.8982 153.526C19.015 153.28 19.1453 153.039 19.2771 152.8C29.3742 134.485 39.4688 116.167 49.571 97.8543C56.1486 85.9307 62.7376 74.0134 69.3205 62.0927C69.4692 61.8234 69.6057 61.5474 69.8201 61.1363C69.5231 61.1821 69.3429 61.1723 69.1967 61.2379C65.8159 62.756 62.4427 64.2909 59.0575 65.7991C58.4495 66.07 58.0682 66.5323 57.7031 67.0448C53.8309 72.4799 49.9071 77.8789 46.0916 83.3535C39.4867 92.8303 32.9542 102.358 26.3777 111.854C24.9559 113.907 23.4833 115.925 22.0179 117.948C21.7223 118.355 21.3736 118.731 21.0112 119.082C20.7473 119.338 20.4066 119.432 20.0402 119.25C19.682 119.071 19.516 118.758 19.5552 118.388C19.5999 117.966 19.6737 117.532 19.8297 117.14C20.2627 116.054 20.7146 114.973 21.2128 113.915C23.5925 108.863 26.2932 103.979 29.0709 99.1397C33.7326 91.0177 38.4413 82.9227 43.1301 74.8162C43.3241 74.4808 43.5159 74.144 43.8037 73.6425C43.4505 73.7584 43.2431 73.7946 43.0669 73.8889C35.2537 78.0701 27.5921 82.5111 20.1357 87.3023C19.8871 87.462 19.659 87.6537 19.2361 87.9683C20.6019 88.1296 21.7854 87.864 23.0339 88.3767C22.7313 88.5392 22.548 88.6484 22.3559 88.7392C20.6989 89.5224 19.0289 90.2792 17.3861 91.0909C16.2221 91.666 15.0076 92.0719 13.7493 92.3584C13.1722 92.4897 12.5921 92.5073 12.0249 92.2671C10.9791 91.8242 10.4547 90.7144 10.8918 89.6698C11.0811 89.2174 11.3964 88.7804 11.7559 88.4451C12.3236 87.9153 12.9525 87.4412 13.5975 87.0057C18.0305 84.0127 22.6055 81.2463 27.2282 78.5597C33.4369 74.9514 39.7429 71.5198 46.1422 68.261C46.8156 67.9181 47.3668 67.5165 47.7632 66.8234C53.7495 56.3566 59.6808 45.8597 65.1877 35.1298C68.1279 29.4011 70.9719 23.6261 73.3717 17.6443C74.3892 15.1081 75.3211 12.5432 75.9386 9.87378C76.2656 8.46042 76.4677 7.03638 76.3962 5.58182C76.2735 3.08722 75.1577 2.02554 72.4203 2.15122C70.9715 2.21774 69.5711 2.5999 68.2001 3.06422C65.1205 4.10718 62.2211 5.54306 59.3993 7.1423C53.5793 10.4407 48.129 14.2846 42.8648 18.3981C33.516 25.7035 24.9632 33.8445 17.2826 42.891C13.5389 47.3005 10.053 51.9 7.19758 56.9494C6.27397 58.5826 5.45369 60.2644 4.80825 62.0273C4.40501 63.1287 4.06773 64.2507 3.98953 65.4296C3.96125 65.8561 3.96389 66.2891 4.00201 66.7147C4.08629 67.6551 4.58541 68.3289 5.45853 68.6669C5.92489 68.8474 6.43237 68.9535 6.93089 69.0133C8.58133 69.2113 10.2138 69.0028 11.8025 68.5824C13.9504 68.0142 16.0711 67.3437 18.2063 66.7268C19.4804 66.3587 20.7595 66.0073 22.0375 65.6526C22.4 65.5519 22.7648 65.4181 23.2541 65.6001C23.0768 65.7579 22.9825 65.879 22.8589 65.9463C19.4671 67.7943 16.0968 69.6873 12.386 70.8575C10.4797 71.4587 8.55742 71.9495 6.53534 71.8767C6.26241 71.8669 5.98849 71.8628 5.71709 71.8355C2.72349 71.5343 0.809334 69.5016 0.697574 66.5014C0.647614 65.1598 0.906494 63.8607 1.28145 62.5825C2.15669 59.5986 3.59073 56.8727 5.20793 54.2405C7.76805 50.0735 10.744 46.2087 13.9185 42.4977C22.5334 32.4266 32.2856 23.5791 42.9121 15.6827C48.0225 11.8853 53.3069 8.34818 58.8872 5.2699C61.7949 3.66598 64.7689 2.19346 67.9396 1.18062C69.2348 0.766902 70.5761 0.480702 71.9126 0.218542C72.8722 0.0303021 73.8528 0.0787028 74.8199 0.292783C76.7085 0.710823 77.918 1.86178 78.497 3.68466C78.9534 5.12182 79.0005 6.59814 78.8511 8.08774C78.6281 10.3106 78.1109 12.4704 77.4451 14.5967C75.9608 19.3374 73.9591 23.8694 71.8382 28.3498C68.1137 36.2178 64.0052 43.888 59.8129 51.5134C57.5007 55.719 55.1414 59.8987 52.8073 64.0923C52.6573 64.3619 52.5409 64.6503 52.4143 64.9324C52.4115 64.9387 52.4739 64.9743 52.5403 65.02ZM26.6847 109.264C26.8476 109.105 27.037 108.966 27.1689 108.785C27.6965 108.059 28.211 107.324 28.722 106.587C37.6091 93.7636 46.4951 80.9398 55.3795 68.1149C55.4781 67.9725 55.5524 67.8133 55.7456 67.4719C55.2993 67.656 55.0512 67.7415 54.8181 67.8572C53.2113 68.6547 51.6178 69.4798 49.9983 70.2504C49.296 70.5845 48.8262 71.0708 48.4389 71.7441C44.2585 79.0124 40.0696 86.2759 35.847 93.5197C33.0188 98.3714 30.1297 103.188 27.2784 108.026C27.0459 108.421 26.8945 108.863 26.7054 109.283C26.5857 109.415 26.466 109.547 26.3463 109.679C26.3945 109.707 26.4427 109.734 26.4909 109.762C26.5555 109.596 26.6201 109.43 26.6847 109.264ZM92.558 22.9271C91.1311 24.0764 84.4505 32.0945 77.2747 41.1923C68.9248 51.7788 63.4891 58.98 63.0675 60.0456C63.3566 59.9184 63.5996 59.8108 63.8432 59.7044C66.5583 58.5189 69.2656 57.3149 71.9945 56.1621C72.6435 55.8879 73.0869 55.5059 73.4343 54.8935C79.4001 44.3786 85.5831 33.9933 92.0714 23.7913C92.2068 23.5784 92.32 23.3515 92.558 22.9271ZM95.4181 59.7685C95.4727 59.8081 95.5273 59.8475 95.582 59.8871C95.7113 59.804 95.8495 59.7319 95.9686 59.6362C98.5239 57.5838 101.11 55.5684 103.616 53.4573C104.866 52.4049 105.975 51.1845 107.129 50.0216C107.42 49.7279 107.727 49.417 107.843 48.9808C106.633 48.6679 103.859 49.0107 101.888 49.7163C99.7585 53.0251 97.5883 56.3968 95.4181 59.7685Z" fill="black"/>
<path d="M144.491 67.5836C144.705 67.4966 144.914 67.3873 145.135 67.3266C145.976 67.0966 146.631 67.493 146.772 68.3475C146.821 68.6458 146.802 68.9775 146.724 69.2702C146.524 70.0225 146.317 70.7782 146.036 71.5026C145.259 73.5026 144.433 75.483 143.649 77.4801C143.364 78.2051 143.139 78.9537 142.897 79.6952C142.839 79.8739 142.826 80.0672 142.76 80.4312C143.06 80.2437 143.263 80.1695 143.393 80.0281C144.367 78.9643 145.375 77.9257 146.28 76.805C147.481 75.3182 148.591 73.7586 149.753 72.2402C152.148 69.1104 154.548 65.9844 156.956 62.8643C157.385 62.3088 157.857 61.7866 158.316 61.2547C158.494 61.0482 158.681 60.8464 158.881 60.6615C159.615 59.9834 160.432 59.784 161.12 60.1366C161.918 60.546 162.186 61.2698 162.1 62.0996C162.028 62.7917 161.902 63.495 161.677 64.151C161.197 65.552 160.646 66.9299 160.105 68.3094C159.478 69.9072 158.827 71.4957 158.191 73.0903C158.08 73.3702 157.993 73.6602 157.841 74.104C158.423 73.8281 158.667 73.4374 158.954 73.1069C161.051 70.6896 163.12 68.247 165.237 65.8479C167.148 63.683 169.106 61.5595 171.053 59.4264C171.473 58.9658 171.918 58.5238 172.383 58.1089C172.671 57.8525 172.995 57.6135 173.343 57.4536C174.423 56.9572 175.568 57.5502 175.707 58.7251C175.774 59.2882 175.703 59.9035 175.541 60.4494C175.275 61.3431 174.88 62.1982 174.547 63.0725C174.442 63.349 174.362 63.6352 174.427 64.0087C174.896 63.4958 175.368 62.9856 175.833 62.4697C178.395 59.63 180.95 56.7845 183.52 53.9517C184.096 53.3163 184.7 52.7021 185.33 52.1201C185.668 51.8077 186.059 51.5161 186.478 51.3344C187.557 50.866 188.671 51.4326 188.916 52.5831C189.01 53.0252 189.007 53.5314 188.89 53.9657C188.647 54.8658 188.352 55.7604 187.983 56.6162C186.994 58.9086 185.95 61.1775 184.94 63.4609C184.773 63.8377 184.529 64.2093 184.624 64.7633C185.412 64.3307 186.017 63.7885 186.639 63.2748C188.865 61.435 191.074 59.5742 193.308 57.7445C194.001 57.1773 194.722 56.63 195.49 56.1756C195.978 55.8872 196.566 55.6806 197.128 55.6233C198.456 55.488 199.469 56.3928 199.597 57.72C199.678 58.5559 199.504 59.3567 199.18 60.1186C198.661 61.339 198.111 62.546 197.577 63.76C197.424 64.1083 197.283 64.4617 197.045 65.0296C197.389 64.8399 197.549 64.7754 197.681 64.6752C208.372 56.6066 219.552 49.2456 230.67 41.7916C236.86 37.6417 242.93 33.3121 249.06 29.0737C256.732 23.7701 264.422 18.4937 272.081 13.1711C275.188 11.0111 278.226 8.75069 281.311 6.55729C282.168 5.94785 283.074 5.40541 283.97 4.85213C284.223 4.69585 284.507 4.50197 284.899 4.79289C284.799 5.01745 284.741 5.28845 284.584 5.47581C283.909 6.28125 283.267 7.13153 282.495 7.83641C281.201 9.01905 279.872 10.1797 278.459 11.2149C274.02 14.4661 269.524 17.6389 265.074 20.8744C263.088 22.3187 261.156 23.8374 259.203 25.328C257.591 26.559 255.986 27.7991 254.376 29.0338C246.975 34.7123 239.089 39.716 231.659 45.3545C225.193 50.2617 218.743 55.1904 212.277 60.0979C208.236 63.1651 204.188 66.223 200.123 69.2579C198.936 70.1439 197.691 70.9542 196.45 71.7647C195.698 72.2558 194.88 72.6138 194.005 72.8636C192.191 73.3817 189.882 72.2462 190.068 69.5676C190.129 68.6968 190.351 67.8682 190.699 67.0844C191.222 65.9091 191.805 64.7606 192.371 63.6045C192.541 63.256 192.737 62.9198 193.042 62.3538C192.659 62.5558 192.464 62.6268 192.306 62.7467C190.66 63.9987 189.027 65.2688 187.374 66.5117C186.658 67.0503 185.923 67.5709 185.158 68.036C184.698 68.3158 184.18 68.5345 183.659 68.6738C182.185 69.0678 180.923 68.3026 180.517 66.8217C180.318 66.0942 180.316 65.3596 180.421 64.6161C180.614 63.2507 181.082 61.9728 181.606 60.7076C181.73 60.4071 182.021 60.125 181.758 59.54C181.463 59.9131 181.233 60.2248 180.982 60.5177C178.949 62.8871 176.919 65.2593 174.871 67.6161C174.207 68.3813 173.519 69.1317 172.789 69.8341C172.345 70.2618 171.841 70.6648 171.293 70.9398C169.801 71.6896 168.315 70.8633 168.096 69.2112C167.975 68.3021 168.14 67.4222 168.411 66.5586C168.537 66.157 168.683 65.7619 168.913 65.0942C168.525 65.4472 168.322 65.5953 168.164 65.7816C165.893 68.4599 163.625 71.1412 161.363 73.8267C160.407 74.9606 159.481 76.1196 158.51 77.24C158.104 77.7093 157.632 78.1275 157.158 78.5312C156.896 78.7552 156.585 78.9482 156.264 79.0744C155.074 79.5422 153.922 78.9818 153.619 77.74C153.483 77.1842 153.472 76.5788 153.512 76.0034C153.609 74.5948 153.983 73.2364 154.417 71.8988C154.73 70.9347 155.091 69.9862 155.429 69.0303C155.516 68.786 155.597 68.5398 155.527 68.2234C155.275 68.5119 155.007 68.7885 154.773 69.0906C152.356 72.2036 149.951 75.3259 147.527 78.4332C146.831 79.3249 146.128 80.2184 145.347 81.033C144.704 81.7036 143.997 82.3482 143.218 82.8458C141.702 83.8134 140.329 83.216 139.963 81.4674C139.838 80.8698 139.823 80.2193 139.909 79.6145C140.04 78.6917 140.301 77.7872 140.512 76.8759C140.58 76.5805 140.661 76.2882 140.769 75.8676C140.235 76.0982 140.06 76.493 139.829 76.8129C137.179 80.4828 134.555 84.172 131.889 87.8298C129.797 90.6991 127.657 93.5337 125.531 96.3778C125.228 96.7832 124.904 97.1791 124.547 97.5368C124.097 97.9886 123.615 98.0725 123.17 97.8295C122.657 97.55 122.493 97.0749 122.571 96.5394C122.638 96.0797 122.754 95.6168 122.922 95.1842C123.246 94.3488 123.575 93.5084 123.988 92.7148C125.481 89.8424 126.966 86.9635 128.536 84.1329C132.152 77.6152 135.868 71.1536 139.85 64.8517C141.808 61.7524 143.871 58.7168 145.956 55.7006C146.705 54.6162 147.615 53.6293 148.539 52.6831C149.044 52.1654 149.684 51.7156 150.347 51.4253C152.767 50.365 155.15 51.9876 155.066 54.6246C155.021 56.0469 154.618 57.4142 153.897 58.6327C152.845 60.4112 151.694 62.1324 150.571 63.8685C150.437 64.0764 150.211 64.2252 149.961 64.4648C149.4 63.4353 149.498 62.3435 149.208 61.2311C148.946 61.4566 148.78 61.555 148.674 61.6982C147.327 63.5172 145.987 65.341 144.655 67.17C144.57 67.2869 144.557 67.4564 144.51 67.6014C144.096 67.7766 143.94 68.1465 143.805 68.5327C143.649 68.7681 143.494 69.0035 143.338 69.239C143.033 69.374 142.879 69.6102 142.868 69.9417C142.544 70.066 142.397 70.307 142.4 70.6472C141.3 71.7284 140.549 73.0491 139.823 74.3882C139.665 74.6193 139.507 74.8504 139.348 75.0816C139.24 75.2184 139.131 75.3552 139.023 75.492C139.07 75.5175 139.118 75.5431 139.165 75.5687C139.22 75.4005 139.274 75.2322 139.329 75.064C139.657 74.9492 139.804 74.7102 139.803 74.3703C139.991 74.1925 140.214 74.0395 140.361 73.8325C140.94 73.0167 141.503 72.1891 142.054 71.354C142.198 71.1361 142.277 70.8754 142.386 70.6344C142.699 70.5031 142.84 70.2584 142.852 69.9283C143.178 69.8044 143.313 69.5554 143.317 69.2205C143.653 69.1048 143.781 68.8516 143.785 68.5154C144.203 68.3438 144.372 67.9826 144.491 67.5836Z" fill="black"/>
</svg>
